<mxfile host="app.diagrams.net" agent="Mozilla/5.0 (Windows NT 10.0; Win64; x64; rv:138.0) Gecko/20100101 Firefox/138.0" version="27.0.6">
  <diagram name="Strona-1" id="oIqjvW4xun7wDWsJmucB">
    <mxGraphModel dx="1358" dy="749" grid="1" gridSize="10" guides="1" tooltips="1" connect="1" arrows="1" fold="1" page="1" pageScale="1" pageWidth="827" pageHeight="1169" math="0" shadow="0">
      <root>
        <mxCell id="0" />
        <mxCell id="1" parent="0" />
        <mxCell id="axN4tA1za8_WEL22JxkP-1" value="Organ regulujący" style="shape=umlActor;verticalLabelPosition=bottom;verticalAlign=top;html=1;fontColor=default;" vertex="1" parent="1">
          <mxGeometry x="100" y="540" width="30" height="60" as="geometry" />
        </mxCell>
        <mxCell id="axN4tA1za8_WEL22JxkP-2" value="Administrator systemu" style="shape=umlActor;verticalLabelPosition=bottom;verticalAlign=top;html=1;fontColor=default;" vertex="1" parent="1">
          <mxGeometry x="100" y="460" width="30" height="60" as="geometry" />
        </mxCell>
        <mxCell id="axN4tA1za8_WEL22JxkP-3" value="Kierownik kasyna" style="shape=umlActor;verticalLabelPosition=bottom;verticalAlign=top;html=1;fontColor=default;" vertex="1" parent="1">
          <mxGeometry x="100" y="370" width="30" height="60" as="geometry" />
        </mxCell>
        <mxCell id="axN4tA1za8_WEL22JxkP-4" value="Personel kasyna" style="shape=umlActor;verticalLabelPosition=bottom;verticalAlign=top;html=1;fontColor=default;" vertex="1" parent="1">
          <mxGeometry x="100" y="280" width="30" height="60" as="geometry" />
        </mxCell>
        <mxCell id="axN4tA1za8_WEL22JxkP-5" value="Klient" style="shape=umlActor;verticalLabelPosition=bottom;verticalAlign=top;html=1;fontColor=default;" vertex="1" parent="1">
          <mxGeometry x="100" y="200" width="30" height="60" as="geometry" />
        </mxCell>
        <mxCell id="axN4tA1za8_WEL22JxkP-27" value="System Zarządzania Siecią Kasyn" style="html=1;whiteSpace=wrap;horizontal=1;labelPosition=center;verticalLabelPosition=middle;align=center;verticalAlign=top;fontColor=default;" vertex="1" parent="1">
          <mxGeometry x="250" y="130" width="640" height="590" as="geometry" />
        </mxCell>
        <mxCell id="axN4tA1za8_WEL22JxkP-83" style="edgeStyle=orthogonalEdgeStyle;rounded=0;orthogonalLoop=1;jettySize=auto;html=1;endArrow=none;startFill=0;startArrow=block;" edge="1" parent="1" source="axN4tA1za8_WEL22JxkP-28" target="axN4tA1za8_WEL22JxkP-4">
          <mxGeometry relative="1" as="geometry" />
        </mxCell>
        <mxCell id="axN4tA1za8_WEL22JxkP-109" style="edgeStyle=orthogonalEdgeStyle;rounded=0;orthogonalLoop=1;jettySize=auto;html=1;entryX=0.5;entryY=1;entryDx=0;entryDy=0;dashed=1;" edge="1" parent="1" source="axN4tA1za8_WEL22JxkP-28" target="axN4tA1za8_WEL22JxkP-29">
          <mxGeometry relative="1" as="geometry">
            <Array as="points">
              <mxPoint x="390" y="315" />
              <mxPoint x="390" y="270" />
              <mxPoint x="485" y="270" />
            </Array>
          </mxGeometry>
        </mxCell>
        <mxCell id="axN4tA1za8_WEL22JxkP-110" value="&amp;lt;&amp;lt;include&amp;gt;&amp;gt;" style="edgeLabel;html=1;align=center;verticalAlign=middle;resizable=0;points=[];" vertex="1" connectable="0" parent="axN4tA1za8_WEL22JxkP-109">
          <mxGeometry x="0.1231" y="3" relative="1" as="geometry">
            <mxPoint as="offset" />
          </mxGeometry>
        </mxCell>
        <mxCell id="axN4tA1za8_WEL22JxkP-28" value="&lt;div&gt;&lt;code style=&quot;background: transparent; text-shadow: rgba(0, 0, 0, 0.3) 0px 1px; font-family: &amp;quot;Fira Code&amp;quot;, &amp;quot;Fira Mono&amp;quot;, Menlo, Consolas, &amp;quot;DejaVu Sans Mono&amp;quot;, monospace; direction: ltr; text-align: left; white-space: pre; word-spacing: normal; word-break: normal; line-height: 1.5; tab-size: 2; hyphens: none;&quot; class=&quot;language-mermaid&quot;&gt;&lt;span&gt;&lt;span class=&quot;token text&quot;&gt;Obsługa&lt;/span&gt;&lt;/span&gt;&lt;/code&gt;&lt;/div&gt;&lt;div&gt;&lt;code style=&quot;background: transparent; text-shadow: rgba(0, 0, 0, 0.3) 0px 1px; font-family: &amp;quot;Fira Code&amp;quot;, &amp;quot;Fira Mono&amp;quot;, Menlo, Consolas, &amp;quot;DejaVu Sans Mono&amp;quot;, monospace; direction: ltr; text-align: left; white-space: pre; word-spacing: normal; word-break: normal; line-height: 1.5; tab-size: 2; hyphens: none;&quot; class=&quot;language-mermaid&quot;&gt;&lt;span&gt;&lt;span class=&quot;token text&quot;&gt;wypłat&lt;/span&gt;&lt;/span&gt;&lt;/code&gt;&lt;/div&gt;" style="html=1;whiteSpace=wrap;fontColor=default;" vertex="1" parent="1">
          <mxGeometry x="270" y="290" width="110" height="50" as="geometry" />
        </mxCell>
        <mxCell id="axN4tA1za8_WEL22JxkP-29" value="&lt;div&gt;&lt;code style=&quot;background: transparent; text-shadow: rgba(0, 0, 0, 0.3) 0px 1px; font-family: &amp;quot;Fira Code&amp;quot;, &amp;quot;Fira Mono&amp;quot;, Menlo, Consolas, &amp;quot;DejaVu Sans Mono&amp;quot;, monospace; direction: ltr; text-align: left; white-space: pre; word-spacing: normal; word-break: normal; line-height: 1.5; tab-size: 2; hyphens: none;&quot; class=&quot;language-mermaid&quot;&gt;&lt;span&gt;&lt;span class=&quot;token text&quot;&gt;Potwierdzenia&lt;/span&gt;&lt;/span&gt;&lt;/code&gt;&lt;/div&gt;&lt;div&gt;&lt;code style=&quot;background: transparent; text-shadow: rgba(0, 0, 0, 0.3) 0px 1px; font-family: &amp;quot;Fira Code&amp;quot;, &amp;quot;Fira Mono&amp;quot;, Menlo, Consolas, &amp;quot;DejaVu Sans Mono&amp;quot;, monospace; direction: ltr; text-align: left; white-space: pre; word-spacing: normal; word-break: normal; line-height: 1.5; tab-size: 2; hyphens: none;&quot; class=&quot;language-mermaid&quot;&gt;&lt;span&gt;&lt;span class=&quot;token text&quot;&gt;transakcji&lt;/span&gt;&lt;/span&gt;&lt;/code&gt;&lt;/div&gt;" style="html=1;whiteSpace=wrap;fontColor=default;" vertex="1" parent="1">
          <mxGeometry x="430" y="190" width="110" height="50" as="geometry" />
        </mxCell>
        <mxCell id="axN4tA1za8_WEL22JxkP-30" value="&lt;div&gt;&lt;code style=&quot;background: transparent; text-shadow: rgba(0, 0, 0, 0.3) 0px 1px; font-family: &amp;quot;Fira Code&amp;quot;, &amp;quot;Fira Mono&amp;quot;, Menlo, Consolas, &amp;quot;DejaVu Sans Mono&amp;quot;, monospace; direction: ltr; text-align: left; white-space: pre; word-spacing: normal; word-break: normal; line-height: 1.5; tab-size: 2; hyphens: none;&quot; class=&quot;language-mermaid&quot;&gt;&lt;span&gt;&lt;span class=&quot;token text&quot;&gt;Rezerwacja&lt;/span&gt;&lt;/span&gt;&lt;/code&gt;&lt;/div&gt;&lt;div&gt;&lt;code style=&quot;background: transparent; text-shadow: rgba(0, 0, 0, 0.3) 0px 1px; font-family: &amp;quot;Fira Code&amp;quot;, &amp;quot;Fira Mono&amp;quot;, Menlo, Consolas, &amp;quot;DejaVu Sans Mono&amp;quot;, monospace; direction: ltr; text-align: left; white-space: pre; word-spacing: normal; word-break: normal; line-height: 1.5; tab-size: 2; hyphens: none;&quot; class=&quot;language-mermaid&quot;&gt;&lt;span&gt;&lt;span class=&quot;token text&quot;&gt;przez WWW&lt;/span&gt;&lt;/span&gt;&lt;/code&gt;&lt;/div&gt;" style="html=1;whiteSpace=wrap;fontColor=default;" vertex="1" parent="1">
          <mxGeometry x="270" y="380" width="110" height="50" as="geometry" />
        </mxCell>
        <mxCell id="axN4tA1za8_WEL22JxkP-113" style="edgeStyle=orthogonalEdgeStyle;rounded=0;orthogonalLoop=1;jettySize=auto;html=1;exitX=1;exitY=0.25;exitDx=0;exitDy=0;dashed=1;" edge="1" parent="1" source="axN4tA1za8_WEL22JxkP-31" target="axN4tA1za8_WEL22JxkP-36">
          <mxGeometry relative="1" as="geometry">
            <Array as="points">
              <mxPoint x="560" y="303" />
              <mxPoint x="560" y="710" />
              <mxPoint x="325" y="710" />
            </Array>
          </mxGeometry>
        </mxCell>
        <mxCell id="axN4tA1za8_WEL22JxkP-114" value="&amp;lt;&amp;lt;include&amp;gt;&amp;gt;" style="edgeLabel;html=1;align=center;verticalAlign=middle;resizable=0;points=[];rotation=90;" vertex="1" connectable="0" parent="axN4tA1za8_WEL22JxkP-113">
          <mxGeometry x="0.624" y="4" relative="1" as="geometry">
            <mxPoint x="119" y="-54" as="offset" />
          </mxGeometry>
        </mxCell>
        <mxCell id="axN4tA1za8_WEL22JxkP-31" value="&lt;div&gt;&lt;code style=&quot;background: transparent; text-shadow: rgba(0, 0, 0, 0.3) 0px 1px; font-family: &amp;quot;Fira Code&amp;quot;, &amp;quot;Fira Mono&amp;quot;, Menlo, Consolas, &amp;quot;DejaVu Sans Mono&amp;quot;, monospace; direction: ltr; text-align: left; white-space: pre; word-spacing: normal; word-break: normal; line-height: 1.5; tab-size: 2; hyphens: none;&quot; class=&quot;language-mermaid&quot;&gt;&lt;span&gt;&lt;span class=&quot;token text&quot;&gt;Raportowanie&lt;/span&gt;&lt;/span&gt;&lt;/code&gt;&lt;/div&gt;&lt;div&gt;&lt;code style=&quot;background: transparent; text-shadow: rgba(0, 0, 0, 0.3) 0px 1px; font-family: &amp;quot;Fira Code&amp;quot;, &amp;quot;Fira Mono&amp;quot;, Menlo, Consolas, &amp;quot;DejaVu Sans Mono&amp;quot;, monospace; direction: ltr; text-align: left; white-space: pre; word-spacing: normal; word-break: normal; line-height: 1.5; tab-size: 2; hyphens: none;&quot; class=&quot;language-mermaid&quot;&gt;&lt;span&gt;&lt;span class=&quot;token text&quot;&gt;finansowe&lt;/span&gt;&lt;/span&gt;&lt;/code&gt;&lt;/div&gt;" style="html=1;whiteSpace=wrap;fontColor=default;" vertex="1" parent="1">
          <mxGeometry x="430" y="290" width="110" height="50" as="geometry" />
        </mxCell>
        <mxCell id="axN4tA1za8_WEL22JxkP-104" style="edgeStyle=orthogonalEdgeStyle;rounded=0;orthogonalLoop=1;jettySize=auto;html=1;entryX=0;entryY=0.25;entryDx=0;entryDy=0;dashed=1;" edge="1" parent="1" source="axN4tA1za8_WEL22JxkP-32" target="axN4tA1za8_WEL22JxkP-35">
          <mxGeometry relative="1" as="geometry" />
        </mxCell>
        <mxCell id="axN4tA1za8_WEL22JxkP-32" value="&lt;div&gt;&lt;code style=&quot;background: transparent; text-shadow: rgba(0, 0, 0, 0.3) 0px 1px; font-family: &amp;quot;Fira Code&amp;quot;, &amp;quot;Fira Mono&amp;quot;, Menlo, Consolas, &amp;quot;DejaVu Sans Mono&amp;quot;, monospace; direction: ltr; text-align: left; white-space: pre; word-spacing: normal; word-break: normal; line-height: 1.5; tab-size: 2; hyphens: none;&quot; class=&quot;language-mermaid&quot;&gt;&lt;span&gt;&lt;span class=&quot;token text&quot;&gt;Weryfikacja&lt;/span&gt;&lt;/span&gt;&lt;/code&gt;&lt;/div&gt;&lt;div&gt;&lt;code style=&quot;background: transparent; text-shadow: rgba(0, 0, 0, 0.3) 0px 1px; font-family: &amp;quot;Fira Code&amp;quot;, &amp;quot;Fira Mono&amp;quot;, Menlo, Consolas, &amp;quot;DejaVu Sans Mono&amp;quot;, monospace; direction: ltr; text-align: left; white-space: pre; word-spacing: normal; word-break: normal; line-height: 1.5; tab-size: 2; hyphens: none;&quot; class=&quot;language-mermaid&quot;&gt;&lt;span&gt;&lt;span class=&quot;token text&quot;&gt;rezerwacji&lt;/span&gt;&lt;/span&gt;&lt;/code&gt;&lt;/div&gt;" style="html=1;whiteSpace=wrap;fontColor=default;" vertex="1" parent="1">
          <mxGeometry x="270" y="470" width="110" height="50" as="geometry" />
        </mxCell>
        <mxCell id="axN4tA1za8_WEL22JxkP-90" style="edgeStyle=orthogonalEdgeStyle;rounded=0;orthogonalLoop=1;jettySize=auto;html=1;exitX=0;exitY=0.75;exitDx=0;exitDy=0;endArrow=none;startFill=0;startArrow=block;" edge="1" parent="1" source="axN4tA1za8_WEL22JxkP-33">
          <mxGeometry relative="1" as="geometry">
            <mxPoint x="120" y="412.9047619047619" as="targetPoint" />
            <Array as="points">
              <mxPoint x="420" y="413" />
              <mxPoint x="420" y="450" />
              <mxPoint x="190" y="450" />
              <mxPoint x="190" y="413" />
            </Array>
          </mxGeometry>
        </mxCell>
        <mxCell id="axN4tA1za8_WEL22JxkP-33" value="&lt;div&gt;&lt;code style=&quot;background: transparent; text-shadow: rgba(0, 0, 0, 0.3) 0px 1px; font-family: &amp;quot;Fira Code&amp;quot;, &amp;quot;Fira Mono&amp;quot;, Menlo, Consolas, &amp;quot;DejaVu Sans Mono&amp;quot;, monospace; direction: ltr; text-align: left; white-space: pre; word-spacing: normal; word-break: normal; line-height: 1.5; tab-size: 2; hyphens: none;&quot; class=&quot;language-mermaid&quot;&gt;&lt;span&gt;&lt;span class=&quot;token text&quot;&gt;Zarządzanie&lt;/span&gt;&lt;/span&gt;&lt;/code&gt;&lt;/div&gt;&lt;div&gt;&lt;code style=&quot;background: transparent; text-shadow: rgba(0, 0, 0, 0.3) 0px 1px; font-family: &amp;quot;Fira Code&amp;quot;, &amp;quot;Fira Mono&amp;quot;, Menlo, Consolas, &amp;quot;DejaVu Sans Mono&amp;quot;, monospace; direction: ltr; text-align: left; white-space: pre; word-spacing: normal; word-break: normal; line-height: 1.5; tab-size: 2; hyphens: none;&quot; class=&quot;language-mermaid&quot;&gt;&lt;span&gt;&lt;span class=&quot;token text&quot;&gt;terminami&lt;/span&gt;&lt;/span&gt;&lt;/code&gt;&lt;/div&gt;" style="html=1;whiteSpace=wrap;fontColor=default;" vertex="1" parent="1">
          <mxGeometry x="430" y="375" width="110" height="50" as="geometry" />
        </mxCell>
        <mxCell id="axN4tA1za8_WEL22JxkP-34" value="&lt;code style=&quot;background: transparent; text-shadow: rgba(0, 0, 0, 0.3) 0px 1px; font-family: &amp;quot;Fira Code&amp;quot;, &amp;quot;Fira Mono&amp;quot;, Menlo, Consolas, &amp;quot;DejaVu Sans Mono&amp;quot;, monospace; direction: ltr; text-align: left; white-space: pre; word-spacing: normal; word-break: normal; line-height: 1.5; tab-size: 2; hyphens: none;&quot; class=&quot;language-mermaid&quot;&gt;&lt;span&gt;&lt;span style=&quot;&quot; class=&quot;token text&quot;&gt;Weryfikacja wieku&lt;/span&gt;&lt;/span&gt;&lt;/code&gt;" style="html=1;whiteSpace=wrap;fontColor=default;" vertex="1" parent="1">
          <mxGeometry x="270" y="560" width="110" height="50" as="geometry" />
        </mxCell>
        <mxCell id="axN4tA1za8_WEL22JxkP-35" value="&lt;div&gt;&lt;code style=&quot;background: transparent; text-shadow: rgba(0, 0, 0, 0.3) 0px 1px; font-family: &amp;quot;Fira Code&amp;quot;, &amp;quot;Fira Mono&amp;quot;, Menlo, Consolas, &amp;quot;DejaVu Sans Mono&amp;quot;, monospace; direction: ltr; text-align: left; white-space: pre; word-spacing: normal; word-break: normal; line-height: 1.5; tab-size: 2; hyphens: none;&quot; class=&quot;language-mermaid&quot;&gt;&lt;span&gt;&lt;span class=&quot;token text&quot;&gt;Anulowanie&lt;/span&gt;&lt;/span&gt;&lt;/code&gt;&lt;/div&gt;&lt;div&gt;&lt;code style=&quot;background: transparent; text-shadow: rgba(0, 0, 0, 0.3) 0px 1px; font-family: &amp;quot;Fira Code&amp;quot;, &amp;quot;Fira Mono&amp;quot;, Menlo, Consolas, &amp;quot;DejaVu Sans Mono&amp;quot;, monospace; direction: ltr; text-align: left; white-space: pre; word-spacing: normal; word-break: normal; line-height: 1.5; tab-size: 2; hyphens: none;&quot; class=&quot;language-mermaid&quot;&gt;&lt;span&gt;&lt;span class=&quot;token text&quot;&gt;rezerwacji&lt;/span&gt;&lt;/span&gt;&lt;/code&gt;&lt;/div&gt;" style="html=1;whiteSpace=wrap;fontColor=default;" vertex="1" parent="1">
          <mxGeometry x="430" y="470" width="110" height="50" as="geometry" />
        </mxCell>
        <mxCell id="axN4tA1za8_WEL22JxkP-36" value="&lt;div&gt;&lt;code style=&quot;background: transparent; text-shadow: rgba(0, 0, 0, 0.3) 0px 1px; font-family: &amp;quot;Fira Code&amp;quot;, &amp;quot;Fira Mono&amp;quot;, Menlo, Consolas, &amp;quot;DejaVu Sans Mono&amp;quot;, monospace; direction: ltr; text-align: left; white-space: pre; word-spacing: normal; word-break: normal; line-height: 1.5; tab-size: 2; hyphens: none;&quot; class=&quot;language-mermaid&quot;&gt;&lt;span&gt;&lt;span style=&quot;&quot; class=&quot;token text&quot;&gt;Raportowanie&lt;/span&gt;&lt;/span&gt;&lt;/code&gt;&lt;/div&gt;&lt;div&gt;&lt;code style=&quot;background: transparent; text-shadow: rgba(0, 0, 0, 0.3) 0px 1px; font-family: &amp;quot;Fira Code&amp;quot;, &amp;quot;Fira Mono&amp;quot;, Menlo, Consolas, &amp;quot;DejaVu Sans Mono&amp;quot;, monospace; direction: ltr; text-align: left; white-space: pre; word-spacing: normal; word-break: normal; line-height: 1.5; tab-size: 2; hyphens: none;&quot; class=&quot;language-mermaid&quot;&gt;&lt;span&gt;&lt;span style=&quot;&quot; class=&quot;token text&quot;&gt;do organów&lt;/span&gt;&lt;/span&gt;&lt;/code&gt;&lt;/div&gt;" style="html=1;whiteSpace=wrap;fontColor=default;" vertex="1" parent="1">
          <mxGeometry x="270" y="650" width="110" height="50" as="geometry" />
        </mxCell>
        <mxCell id="axN4tA1za8_WEL22JxkP-100" style="edgeStyle=orthogonalEdgeStyle;rounded=0;orthogonalLoop=1;jettySize=auto;html=1;exitX=0.5;exitY=1;exitDx=0;exitDy=0;dashed=1;" edge="1" parent="1" source="axN4tA1za8_WEL22JxkP-37" target="axN4tA1za8_WEL22JxkP-52">
          <mxGeometry relative="1" as="geometry" />
        </mxCell>
        <mxCell id="axN4tA1za8_WEL22JxkP-101" value="&amp;lt;&amp;lt;extend&amp;gt;&amp;gt;" style="edgeLabel;html=1;align=center;verticalAlign=middle;resizable=0;points=[];" vertex="1" connectable="0" parent="axN4tA1za8_WEL22JxkP-100">
          <mxGeometry x="-0.0615" relative="1" as="geometry">
            <mxPoint as="offset" />
          </mxGeometry>
        </mxCell>
        <mxCell id="axN4tA1za8_WEL22JxkP-37" value="&lt;div&gt;&lt;code style=&quot;background: transparent; text-shadow: rgba(0, 0, 0, 0.3) 0px 1px; font-family: &amp;quot;Fira Code&amp;quot;, &amp;quot;Fira Mono&amp;quot;, Menlo, Consolas, &amp;quot;DejaVu Sans Mono&amp;quot;, monospace; direction: ltr; text-align: left; white-space: pre; word-spacing: normal; word-break: normal; line-height: 1.5; tab-size: 2; hyphens: none;&quot; class=&quot;language-mermaid&quot;&gt;&lt;span&gt;&lt;span style=&quot;&quot; class=&quot;token text&quot;&gt;Monitorowanie&lt;/span&gt;&lt;/span&gt;&lt;/code&gt;&lt;/div&gt;&lt;div&gt;&lt;code style=&quot;background: transparent; text-shadow: rgba(0, 0, 0, 0.3) 0px 1px; font-family: &amp;quot;Fira Code&amp;quot;, &amp;quot;Fira Mono&amp;quot;, Menlo, Consolas, &amp;quot;DejaVu Sans Mono&amp;quot;, monospace; direction: ltr; text-align: left; white-space: pre; word-spacing: normal; word-break: normal; line-height: 1.5; tab-size: 2; hyphens: none;&quot; class=&quot;language-mermaid&quot;&gt;&lt;span&gt;&lt;span style=&quot;&quot; class=&quot;token text&quot;&gt;aktywności&lt;/span&gt;&lt;/span&gt;&lt;/code&gt;&lt;/div&gt;" style="html=1;whiteSpace=wrap;fontColor=default;" vertex="1" parent="1">
          <mxGeometry x="430" y="560" width="110" height="50" as="geometry" />
        </mxCell>
        <mxCell id="axN4tA1za8_WEL22JxkP-49" value="" style="edgeStyle=orthogonalEdgeStyle;rounded=0;orthogonalLoop=1;jettySize=auto;html=1;" edge="1" parent="1" source="axN4tA1za8_WEL22JxkP-46">
          <mxGeometry relative="1" as="geometry">
            <mxPoint x="730" y="595" as="targetPoint" />
          </mxGeometry>
        </mxCell>
        <mxCell id="axN4tA1za8_WEL22JxkP-50" value="&lt;div&gt;&lt;code style=&quot;background: transparent; text-shadow: rgba(0, 0, 0, 0.3) 0px 1px; font-family: &amp;quot;Fira Code&amp;quot;, &amp;quot;Fira Mono&amp;quot;, Menlo, Consolas, &amp;quot;DejaVu Sans Mono&amp;quot;, monospace; direction: ltr; text-align: left; white-space: pre; word-spacing: normal; word-break: normal; line-height: 1.5; tab-size: 2; hyphens: none;&quot; class=&quot;language-mermaid&quot;&gt;&lt;span&gt;&lt;span class=&quot;token text&quot;&gt;Obliczanie&lt;/span&gt;&lt;/span&gt;&lt;/code&gt;&lt;/div&gt;&lt;div&gt;&lt;code style=&quot;background: transparent; text-shadow: rgba(0, 0, 0, 0.3) 0px 1px; font-family: &amp;quot;Fira Code&amp;quot;, &amp;quot;Fira Mono&amp;quot;, Menlo, Consolas, &amp;quot;DejaVu Sans Mono&amp;quot;, monospace; direction: ltr; text-align: left; white-space: pre; word-spacing: normal; word-break: normal; line-height: 1.5; tab-size: 2; hyphens: none;&quot; class=&quot;language-mermaid&quot;&gt;&lt;span&gt;&lt;span class=&quot;token text&quot;&gt;wygranych&lt;/span&gt;&lt;/span&gt;&lt;/code&gt;&lt;/div&gt;" style="html=1;whiteSpace=wrap;fontColor=default;" vertex="1" parent="1">
          <mxGeometry x="270" y="190" width="110" height="50" as="geometry" />
        </mxCell>
        <mxCell id="axN4tA1za8_WEL22JxkP-52" value="&lt;div&gt;&lt;code style=&quot;background: transparent; text-shadow: rgba(0, 0, 0, 0.3) 0px 1px; font-family: &amp;quot;Fira Code&amp;quot;, &amp;quot;Fira Mono&amp;quot;, Menlo, Consolas, &amp;quot;DejaVu Sans Mono&amp;quot;, monospace; direction: ltr; text-align: left; white-space: pre; word-spacing: normal; word-break: normal; line-height: 1.5; tab-size: 2; hyphens: none;&quot; class=&quot;language-mermaid&quot;&gt;&lt;span&gt;&lt;span class=&quot;token text&quot;&gt;Wykrywanie&lt;/span&gt;&lt;/span&gt;&lt;/code&gt;&lt;/div&gt;&lt;div&gt;&lt;code style=&quot;background: transparent; text-shadow: rgba(0, 0, 0, 0.3) 0px 1px; font-family: &amp;quot;Fira Code&amp;quot;, &amp;quot;Fira Mono&amp;quot;, Menlo, Consolas, &amp;quot;DejaVu Sans Mono&amp;quot;, monospace; direction: ltr; text-align: left; white-space: pre; word-spacing: normal; word-break: normal; line-height: 1.5; tab-size: 2; hyphens: none;&quot; class=&quot;language-mermaid&quot;&gt;&lt;span&gt;&lt;span class=&quot;token text&quot;&gt;nadużyć&lt;/span&gt;&lt;/span&gt;&lt;/code&gt;&lt;/div&gt;" style="html=1;whiteSpace=wrap;fontColor=default;" vertex="1" parent="1">
          <mxGeometry x="430" y="650" width="110" height="50" as="geometry" />
        </mxCell>
        <mxCell id="axN4tA1za8_WEL22JxkP-115" style="edgeStyle=orthogonalEdgeStyle;rounded=0;orthogonalLoop=1;jettySize=auto;html=1;dashed=1;" edge="1" parent="1" source="axN4tA1za8_WEL22JxkP-53" target="axN4tA1za8_WEL22JxkP-56">
          <mxGeometry relative="1" as="geometry" />
        </mxCell>
        <mxCell id="axN4tA1za8_WEL22JxkP-116" value="&lt;font style=&quot;font-size: 5px;&quot;&gt;&amp;lt;&amp;lt;extend&amp;gt;&amp;gt;&lt;/font&gt;" style="edgeLabel;html=1;align=center;verticalAlign=middle;resizable=0;points=[];" vertex="1" connectable="0" parent="axN4tA1za8_WEL22JxkP-115">
          <mxGeometry x="-0.4787" y="-2" relative="1" as="geometry">
            <mxPoint y="-17" as="offset" />
          </mxGeometry>
        </mxCell>
        <mxCell id="axN4tA1za8_WEL22JxkP-53" value="&lt;div&gt;&lt;code class=&quot;language-mermaid&quot; style=&quot;background: transparent; text-shadow: rgba(0, 0, 0, 0.3) 0px 1px; font-family: &amp;quot;Fira Code&amp;quot;, &amp;quot;Fira Mono&amp;quot;, Menlo, Consolas, &amp;quot;DejaVu Sans Mono&amp;quot;, monospace; direction: ltr; text-align: left; white-space: pre; word-spacing: normal; word-break: normal; line-height: 1.5; tab-size: 2; hyphens: none;&quot;&gt;&lt;span&gt;&lt;span class=&quot;token text&quot; style=&quot;&quot;&gt;Monitoring&lt;/span&gt;&lt;/span&gt;&lt;/code&gt;&lt;/div&gt;&lt;div&gt;&lt;code class=&quot;language-mermaid&quot; style=&quot;background: transparent; text-shadow: rgba(0, 0, 0, 0.3) 0px 1px; font-family: &amp;quot;Fira Code&amp;quot;, &amp;quot;Fira Mono&amp;quot;, Menlo, Consolas, &amp;quot;DejaVu Sans Mono&amp;quot;, monospace; direction: ltr; text-align: left; white-space: pre; word-spacing: normal; word-break: normal; line-height: 1.5; tab-size: 2; hyphens: none;&quot;&gt;&lt;span&gt;&lt;span class=&quot;token text&quot; style=&quot;&quot;&gt;przebiegu&lt;/span&gt;&lt;/span&gt;&lt;/code&gt;&lt;/div&gt;" style="html=1;whiteSpace=wrap;fontColor=default;" vertex="1" parent="1">
          <mxGeometry x="590" y="290" width="110" height="50" as="geometry" />
        </mxCell>
        <mxCell id="axN4tA1za8_WEL22JxkP-107" style="edgeStyle=orthogonalEdgeStyle;rounded=0;orthogonalLoop=1;jettySize=auto;html=1;dashed=1;" edge="1" parent="1" source="axN4tA1za8_WEL22JxkP-54" target="axN4tA1za8_WEL22JxkP-50">
          <mxGeometry relative="1" as="geometry">
            <Array as="points">
              <mxPoint x="805" y="160" />
              <mxPoint x="325" y="160" />
            </Array>
          </mxGeometry>
        </mxCell>
        <mxCell id="axN4tA1za8_WEL22JxkP-108" value="&amp;lt;&amp;lt;include&amp;gt;&amp;gt;" style="edgeLabel;html=1;align=center;verticalAlign=middle;resizable=0;points=[];" vertex="1" connectable="0" parent="axN4tA1za8_WEL22JxkP-107">
          <mxGeometry x="-0.0005" y="1" relative="1" as="geometry">
            <mxPoint as="offset" />
          </mxGeometry>
        </mxCell>
        <mxCell id="axN4tA1za8_WEL22JxkP-54" value="&lt;div&gt;&lt;code class=&quot;language-mermaid&quot; style=&quot;background: transparent; text-shadow: rgba(0, 0, 0, 0.3) 0px 1px; font-family: &amp;quot;Fira Code&amp;quot;, &amp;quot;Fira Mono&amp;quot;, Menlo, Consolas, &amp;quot;DejaVu Sans Mono&amp;quot;, monospace; direction: ltr; text-align: left; white-space: pre; word-spacing: normal; word-break: normal; line-height: 1.5; tab-size: 2; hyphens: none;&quot;&gt;&lt;span&gt;&lt;span class=&quot;token text&quot; style=&quot;&quot;&gt;Rejestracja&lt;/span&gt;&lt;/span&gt;&lt;/code&gt;&lt;/div&gt;&lt;div&gt;&lt;code class=&quot;language-mermaid&quot; style=&quot;background: transparent; text-shadow: rgba(0, 0, 0, 0.3) 0px 1px; font-family: &amp;quot;Fira Code&amp;quot;, &amp;quot;Fira Mono&amp;quot;, Menlo, Consolas, &amp;quot;DejaVu Sans Mono&amp;quot;, monospace; direction: ltr; text-align: left; white-space: pre; word-spacing: normal; word-break: normal; line-height: 1.5; tab-size: 2; hyphens: none;&quot;&gt;&lt;span&gt;&lt;span class=&quot;token text&quot; style=&quot;&quot;&gt;wyników&lt;/span&gt;&lt;/span&gt;&lt;/code&gt;&lt;/div&gt;" style="html=1;whiteSpace=wrap;fontColor=default;" vertex="1" parent="1">
          <mxGeometry x="750" y="190" width="110" height="50" as="geometry" />
        </mxCell>
        <mxCell id="axN4tA1za8_WEL22JxkP-67" style="edgeStyle=orthogonalEdgeStyle;rounded=0;orthogonalLoop=1;jettySize=auto;html=1;exitX=1;exitY=0.5;exitDx=0;exitDy=0;entryX=0.567;entryY=0.717;entryDx=0;entryDy=0;entryPerimeter=0;startArrow=block;startFill=0;endArrow=none;" edge="1" parent="1" source="axN4tA1za8_WEL22JxkP-55" target="axN4tA1za8_WEL22JxkP-2">
          <mxGeometry relative="1" as="geometry">
            <mxPoint x="730" y="800" as="targetPoint" />
            <Array as="points">
              <mxPoint x="720" y="405" />
              <mxPoint x="720" y="790" />
              <mxPoint x="240" y="790" />
              <mxPoint x="240" y="520" />
              <mxPoint x="117" y="520" />
            </Array>
          </mxGeometry>
        </mxCell>
        <mxCell id="axN4tA1za8_WEL22JxkP-55" value="&lt;div&gt;&lt;code class=&quot;language-mermaid&quot; style=&quot;background: transparent; text-shadow: rgba(0, 0, 0, 0.3) 0px 1px; font-family: &amp;quot;Fira Code&amp;quot;, &amp;quot;Fira Mono&amp;quot;, Menlo, Consolas, &amp;quot;DejaVu Sans Mono&amp;quot;, monospace; direction: ltr; text-align: left; white-space: pre; word-spacing: normal; word-break: normal; line-height: 1.5; tab-size: 2; hyphens: none;&quot;&gt;&lt;span&gt;&lt;span class=&quot;token text&quot; style=&quot;&quot;&gt;Zarządzanie&lt;/span&gt;&lt;/span&gt;&lt;/code&gt;&lt;/div&gt;&lt;div&gt;&lt;code class=&quot;language-mermaid&quot; style=&quot;background: transparent; text-shadow: rgba(0, 0, 0, 0.3) 0px 1px; font-family: &amp;quot;Fira Code&amp;quot;, &amp;quot;Fira Mono&amp;quot;, Menlo, Consolas, &amp;quot;DejaVu Sans Mono&amp;quot;, monospace; direction: ltr; text-align: left; white-space: pre; word-spacing: normal; word-break: normal; line-height: 1.5; tab-size: 2; hyphens: none;&quot;&gt;&lt;span&gt;&lt;span class=&quot;token text&quot; style=&quot;&quot;&gt;lokalizacjami&lt;/span&gt;&lt;/span&gt;&lt;/code&gt;&lt;/div&gt;" style="html=1;whiteSpace=wrap;fontColor=default;" vertex="1" parent="1">
          <mxGeometry x="590" y="380" width="110" height="50" as="geometry" />
        </mxCell>
        <mxCell id="axN4tA1za8_WEL22JxkP-56" value="&lt;div&gt;&lt;code class=&quot;language-mermaid&quot; style=&quot;background: transparent; text-shadow: rgba(0, 0, 0, 0.3) 0px 1px; font-family: &amp;quot;Fira Code&amp;quot;, &amp;quot;Fira Mono&amp;quot;, Menlo, Consolas, &amp;quot;DejaVu Sans Mono&amp;quot;, monospace; direction: ltr; text-align: left; white-space: pre; word-spacing: normal; word-break: normal; line-height: 1.5; tab-size: 2; hyphens: none;&quot;&gt;&lt;span&gt;&lt;span class=&quot;token text&quot; style=&quot;&quot;&gt;Wykrywanie&lt;/span&gt;&lt;/span&gt;&lt;/code&gt;&lt;/div&gt;&lt;div&gt;&lt;code class=&quot;language-mermaid&quot; style=&quot;background: transparent; text-shadow: rgba(0, 0, 0, 0.3) 0px 1px; font-family: &amp;quot;Fira Code&amp;quot;, &amp;quot;Fira Mono&amp;quot;, Menlo, Consolas, &amp;quot;DejaVu Sans Mono&amp;quot;, monospace; direction: ltr; text-align: left; white-space: pre; word-spacing: normal; word-break: normal; line-height: 1.5; tab-size: 2; hyphens: none;&quot;&gt;&lt;span&gt;&lt;span class=&quot;token text&quot; style=&quot;&quot;&gt;nieprawidłowości&lt;/span&gt;&lt;/span&gt;&lt;/code&gt;&lt;/div&gt;" style="html=1;whiteSpace=wrap;fontColor=default;" vertex="1" parent="1">
          <mxGeometry x="750" y="290" width="110" height="50" as="geometry" />
        </mxCell>
        <mxCell id="axN4tA1za8_WEL22JxkP-57" value="&lt;div&gt;&lt;code class=&quot;language-mermaid&quot; style=&quot;background: transparent; text-shadow: rgba(0, 0, 0, 0.3) 0px 1px; font-family: &amp;quot;Fira Code&amp;quot;, &amp;quot;Fira Mono&amp;quot;, Menlo, Consolas, &amp;quot;DejaVu Sans Mono&amp;quot;, monospace; direction: ltr; text-align: left; white-space: pre; word-spacing: normal; word-break: normal; line-height: 1.5; tab-size: 2; hyphens: none;&quot;&gt;&lt;span&gt;&lt;span class=&quot;token text&quot; style=&quot;&quot;&gt;Raportowanie&lt;/span&gt;&lt;/span&gt;&lt;/code&gt;&lt;/div&gt;&lt;div&gt;&lt;code class=&quot;language-mermaid&quot; style=&quot;background: transparent; text-shadow: rgba(0, 0, 0, 0.3) 0px 1px; font-family: &amp;quot;Fira Code&amp;quot;, &amp;quot;Fira Mono&amp;quot;, Menlo, Consolas, &amp;quot;DejaVu Sans Mono&amp;quot;, monospace; direction: ltr; text-align: left; white-space: pre; word-spacing: normal; word-break: normal; line-height: 1.5; tab-size: 2; hyphens: none;&quot;&gt;&lt;span&gt;&lt;span class=&quot;token text&quot; style=&quot;&quot;&gt;operacyjne&lt;/span&gt;&lt;/span&gt;&lt;/code&gt;&lt;/div&gt;" style="html=1;whiteSpace=wrap;fontColor=default;" vertex="1" parent="1">
          <mxGeometry x="590" y="470" width="110" height="50" as="geometry" />
        </mxCell>
        <mxCell id="axN4tA1za8_WEL22JxkP-58" value="&lt;div&gt;&lt;code class=&quot;language-mermaid&quot; style=&quot;background: transparent; text-shadow: rgba(0, 0, 0, 0.3) 0px 1px; font-family: &amp;quot;Fira Code&amp;quot;, &amp;quot;Fira Mono&amp;quot;, Menlo, Consolas, &amp;quot;DejaVu Sans Mono&amp;quot;, monospace; direction: ltr; text-align: left; white-space: pre; word-spacing: normal; word-break: normal; line-height: 1.5; tab-size: 2; hyphens: none;&quot;&gt;&lt;span&gt;&lt;span class=&quot;token text&quot; style=&quot;&quot;&gt;Zarządzanie&lt;/span&gt;&lt;/span&gt;&lt;/code&gt;&lt;/div&gt;&lt;div&gt;&lt;code class=&quot;language-mermaid&quot; style=&quot;background: transparent; text-shadow: rgba(0, 0, 0, 0.3) 0px 1px; font-family: &amp;quot;Fira Code&amp;quot;, &amp;quot;Fira Mono&amp;quot;, Menlo, Consolas, &amp;quot;DejaVu Sans Mono&amp;quot;, monospace; direction: ltr; text-align: left; white-space: pre; word-spacing: normal; word-break: normal; line-height: 1.5; tab-size: 2; hyphens: none;&quot;&gt;&lt;span&gt;&lt;span class=&quot;token text&quot; style=&quot;&quot;&gt;personelem&lt;/span&gt;&lt;/span&gt;&lt;/code&gt;&lt;/div&gt;" style="html=1;whiteSpace=wrap;fontColor=default;" vertex="1" parent="1">
          <mxGeometry x="750" y="375" width="110" height="50" as="geometry" />
        </mxCell>
        <mxCell id="axN4tA1za8_WEL22JxkP-66" style="edgeStyle=orthogonalEdgeStyle;rounded=0;orthogonalLoop=1;jettySize=auto;html=1;exitX=1;exitY=0.5;exitDx=0;exitDy=0;entryX=0.667;entryY=0.683;entryDx=0;entryDy=0;entryPerimeter=0;endArrow=none;startFill=0;startArrow=block;" edge="1" parent="1" source="axN4tA1za8_WEL22JxkP-59" target="axN4tA1za8_WEL22JxkP-2">
          <mxGeometry relative="1" as="geometry">
            <mxPoint x="740" y="810" as="targetPoint" />
            <Array as="points">
              <mxPoint x="720" y="585" />
              <mxPoint x="720" y="780" />
              <mxPoint x="220" y="780" />
              <mxPoint x="220" y="501" />
            </Array>
          </mxGeometry>
        </mxCell>
        <mxCell id="axN4tA1za8_WEL22JxkP-59" value="&lt;div&gt;&lt;code class=&quot;language-mermaid&quot; style=&quot;background: transparent; text-shadow: rgba(0, 0, 0, 0.3) 0px 1px; font-family: &amp;quot;Fira Code&amp;quot;, &amp;quot;Fira Mono&amp;quot;, Menlo, Consolas, &amp;quot;DejaVu Sans Mono&amp;quot;, monospace; direction: ltr; text-align: left; white-space: pre; word-spacing: normal; word-break: normal; line-height: 1.5; tab-size: 2; hyphens: none;&quot;&gt;&lt;span&gt;&lt;span class=&quot;token text&quot; style=&quot;&quot;&gt;Konfiguracja&lt;/span&gt;&lt;/span&gt;&lt;/code&gt;&lt;/div&gt;&lt;div&gt;&lt;code class=&quot;language-mermaid&quot; style=&quot;background: transparent; text-shadow: rgba(0, 0, 0, 0.3) 0px 1px; font-family: &amp;quot;Fira Code&amp;quot;, &amp;quot;Fira Mono&amp;quot;, Menlo, Consolas, &amp;quot;DejaVu Sans Mono&amp;quot;, monospace; direction: ltr; text-align: left; white-space: pre; word-spacing: normal; word-break: normal; line-height: 1.5; tab-size: 2; hyphens: none;&quot;&gt;&lt;span&gt;&lt;span class=&quot;token text&quot; style=&quot;&quot;&gt;gier&lt;/span&gt;&lt;/span&gt;&lt;/code&gt;&lt;/div&gt;" style="html=1;whiteSpace=wrap;fontColor=default;" vertex="1" parent="1">
          <mxGeometry x="590" y="560" width="110" height="50" as="geometry" />
        </mxCell>
        <mxCell id="axN4tA1za8_WEL22JxkP-60" value="&lt;div&gt;&lt;code class=&quot;language-mermaid&quot; style=&quot;background: transparent; text-shadow: rgba(0, 0, 0, 0.3) 0px 1px; font-family: &amp;quot;Fira Code&amp;quot;, &amp;quot;Fira Mono&amp;quot;, Menlo, Consolas, &amp;quot;DejaVu Sans Mono&amp;quot;, monospace; direction: ltr; text-align: left; white-space: pre; word-spacing: normal; word-break: normal; line-height: 1.5; tab-size: 2; hyphens: none;&quot;&gt;&lt;span&gt;&lt;span class=&quot;token text&quot; style=&quot;&quot;&gt;Zarządzanie&lt;/span&gt;&lt;/span&gt;&lt;/code&gt;&lt;/div&gt;&lt;div&gt;&lt;code class=&quot;language-mermaid&quot; style=&quot;background: transparent; text-shadow: rgba(0, 0, 0, 0.3) 0px 1px; font-family: &amp;quot;Fira Code&amp;quot;, &amp;quot;Fira Mono&amp;quot;, Menlo, Consolas, &amp;quot;DejaVu Sans Mono&amp;quot;, monospace; direction: ltr; text-align: left; white-space: pre; word-spacing: normal; word-break: normal; line-height: 1.5; tab-size: 2; hyphens: none;&quot;&gt;&lt;span&gt;&lt;span class=&quot;token text&quot; style=&quot;&quot;&gt;sprzętem do gier&lt;/span&gt;&lt;/span&gt;&lt;/code&gt;&lt;/div&gt;" style="html=1;whiteSpace=wrap;fontColor=default;" vertex="1" parent="1">
          <mxGeometry x="750" y="470" width="110" height="50" as="geometry" />
        </mxCell>
        <mxCell id="axN4tA1za8_WEL22JxkP-61" value="&lt;div&gt;&lt;code class=&quot;language-mermaid&quot; style=&quot;background: transparent; text-shadow: rgba(0, 0, 0, 0.3) 0px 1px; font-family: &amp;quot;Fira Code&amp;quot;, &amp;quot;Fira Mono&amp;quot;, Menlo, Consolas, &amp;quot;DejaVu Sans Mono&amp;quot;, monospace; direction: ltr; text-align: left; white-space: pre; word-spacing: normal; word-break: normal; line-height: 1.5; tab-size: 2; hyphens: none;&quot;&gt;&lt;span&gt;&lt;span class=&quot;token text&quot; style=&quot;&quot;&gt;Planowanie&lt;/span&gt;&lt;/span&gt;&lt;/code&gt;&lt;/div&gt;&lt;div&gt;&lt;code class=&quot;language-mermaid&quot; style=&quot;background: transparent; text-shadow: rgba(0, 0, 0, 0.3) 0px 1px; font-family: &amp;quot;Fira Code&amp;quot;, &amp;quot;Fira Mono&amp;quot;, Menlo, Consolas, &amp;quot;DejaVu Sans Mono&amp;quot;, monospace; direction: ltr; text-align: left; white-space: pre; word-spacing: normal; word-break: normal; line-height: 1.5; tab-size: 2; hyphens: none;&quot;&gt;&lt;span&gt;&lt;span class=&quot;token text&quot; style=&quot;&quot;&gt;konserwacji&lt;/span&gt;&lt;/span&gt;&lt;/code&gt;&lt;/div&gt;" style="html=1;whiteSpace=wrap;fontColor=default;" vertex="1" parent="1">
          <mxGeometry x="590" y="650" width="110" height="50" as="geometry" />
        </mxCell>
        <mxCell id="axN4tA1za8_WEL22JxkP-65" style="edgeStyle=orthogonalEdgeStyle;rounded=0;orthogonalLoop=1;jettySize=auto;html=1;exitX=0.5;exitY=1;exitDx=0;exitDy=0;entryX=0.5;entryY=0.5;entryDx=0;entryDy=0;entryPerimeter=0;endArrow=none;startFill=0;startArrow=block;" edge="1" parent="1" source="axN4tA1za8_WEL22JxkP-62" target="axN4tA1za8_WEL22JxkP-2">
          <mxGeometry relative="1" as="geometry">
            <mxPoint x="180" y="490" as="targetPoint" />
            <Array as="points">
              <mxPoint x="805" y="770" />
              <mxPoint x="210" y="770" />
              <mxPoint x="210" y="490" />
            </Array>
          </mxGeometry>
        </mxCell>
        <mxCell id="axN4tA1za8_WEL22JxkP-62" value="&lt;div&gt;&lt;code class=&quot;language-mermaid&quot; style=&quot;background: transparent; text-shadow: rgba(0, 0, 0, 0.3) 0px 1px; font-family: &amp;quot;Fira Code&amp;quot;, &amp;quot;Fira Mono&amp;quot;, Menlo, Consolas, &amp;quot;DejaVu Sans Mono&amp;quot;, monospace; direction: ltr; text-align: left; white-space: pre; word-spacing: normal; word-break: normal; line-height: 1.5; tab-size: 2; hyphens: none;&quot;&gt;&lt;span&gt;&lt;span class=&quot;token text&quot; style=&quot;&quot;&gt;Zarządzanie&lt;/span&gt;&lt;/span&gt;&lt;/code&gt;&lt;/div&gt;&lt;div&gt;&lt;code class=&quot;language-mermaid&quot; style=&quot;background: transparent; text-shadow: rgba(0, 0, 0, 0.3) 0px 1px; font-family: &amp;quot;Fira Code&amp;quot;, &amp;quot;Fira Mono&amp;quot;, Menlo, Consolas, &amp;quot;DejaVu Sans Mono&amp;quot;, monospace; direction: ltr; text-align: left; white-space: pre; word-spacing: normal; word-break: normal; line-height: 1.5; tab-size: 2; hyphens: none;&quot;&gt;&lt;span&gt;&lt;span class=&quot;token text&quot; style=&quot;&quot;&gt;cennikami&lt;/span&gt;&lt;/span&gt;&lt;/code&gt;&lt;/div&gt;" style="html=1;whiteSpace=wrap;fontColor=default;" vertex="1" parent="1">
          <mxGeometry x="750" y="560" width="110" height="50" as="geometry" />
        </mxCell>
        <mxCell id="axN4tA1za8_WEL22JxkP-111" style="edgeStyle=orthogonalEdgeStyle;rounded=0;orthogonalLoop=1;jettySize=auto;html=1;dashed=1;endArrow=classic;startFill=0;startArrow=none;endFill=1;" edge="1" parent="1" source="axN4tA1za8_WEL22JxkP-63" target="axN4tA1za8_WEL22JxkP-34">
          <mxGeometry relative="1" as="geometry">
            <Array as="points">
              <mxPoint x="645" y="260" />
              <mxPoint x="920" y="260" />
              <mxPoint x="920" y="810" />
              <mxPoint x="325" y="810" />
            </Array>
          </mxGeometry>
        </mxCell>
        <mxCell id="axN4tA1za8_WEL22JxkP-112" value="&amp;lt;&amp;lt;include&amp;gt;&amp;gt;" style="edgeLabel;html=1;align=center;verticalAlign=middle;resizable=0;points=[];" vertex="1" connectable="0" parent="axN4tA1za8_WEL22JxkP-111">
          <mxGeometry x="0.3837" y="-3" relative="1" as="geometry">
            <mxPoint as="offset" />
          </mxGeometry>
        </mxCell>
        <mxCell id="axN4tA1za8_WEL22JxkP-63" value="&lt;code class=&quot;language-mermaid&quot; style=&quot;background: transparent; text-shadow: rgba(0, 0, 0, 0.3) 0px 1px; font-family: &amp;quot;Fira Code&amp;quot;, &amp;quot;Fira Mono&amp;quot;, Menlo, Consolas, &amp;quot;DejaVu Sans Mono&amp;quot;, monospace; direction: ltr; text-align: left; white-space: pre; word-spacing: normal; word-break: normal; line-height: 1.5; tab-size: 2; hyphens: none;&quot;&gt;&lt;span&gt;&lt;span class=&quot;token text&quot; style=&quot;&quot;&gt;Rejestracja gry&lt;/span&gt;&lt;/span&gt;&lt;/code&gt;" style="html=1;whiteSpace=wrap;fontColor=default;" vertex="1" parent="1">
          <mxGeometry x="590" y="190" width="110" height="50" as="geometry" />
        </mxCell>
        <mxCell id="axN4tA1za8_WEL22JxkP-68" style="edgeStyle=orthogonalEdgeStyle;rounded=0;orthogonalLoop=1;jettySize=auto;html=1;exitX=0;exitY=0.5;exitDx=0;exitDy=0;entryX=0.5;entryY=0.5;entryDx=0;entryDy=0;entryPerimeter=0;endArrow=none;startFill=0;startArrow=block;" edge="1" parent="1" source="axN4tA1za8_WEL22JxkP-31" target="axN4tA1za8_WEL22JxkP-2">
          <mxGeometry relative="1" as="geometry">
            <Array as="points">
              <mxPoint x="420" y="315" />
              <mxPoint x="420" y="460" />
              <mxPoint x="115" y="460" />
            </Array>
          </mxGeometry>
        </mxCell>
        <mxCell id="axN4tA1za8_WEL22JxkP-69" style="edgeStyle=orthogonalEdgeStyle;rounded=0;orthogonalLoop=1;jettySize=auto;html=1;entryX=0.567;entryY=0.4;entryDx=0;entryDy=0;entryPerimeter=0;endArrow=none;startFill=0;startArrow=block;" edge="1" parent="1" source="axN4tA1za8_WEL22JxkP-37" target="axN4tA1za8_WEL22JxkP-2">
          <mxGeometry relative="1" as="geometry">
            <Array as="points">
              <mxPoint x="485" y="540" />
              <mxPoint x="230" y="540" />
              <mxPoint x="230" y="484" />
            </Array>
          </mxGeometry>
        </mxCell>
        <mxCell id="axN4tA1za8_WEL22JxkP-70" style="edgeStyle=orthogonalEdgeStyle;rounded=0;orthogonalLoop=1;jettySize=auto;html=1;exitX=0;exitY=0.5;exitDx=0;exitDy=0;entryX=0.5;entryY=0.5;entryDx=0;entryDy=0;entryPerimeter=0;endArrow=none;startFill=0;startArrow=block;" edge="1" parent="1" source="axN4tA1za8_WEL22JxkP-60" target="axN4tA1za8_WEL22JxkP-2">
          <mxGeometry relative="1" as="geometry">
            <Array as="points">
              <mxPoint x="730" y="495" />
              <mxPoint x="730" y="540" />
              <mxPoint x="260" y="540" />
              <mxPoint x="260" y="490" />
            </Array>
          </mxGeometry>
        </mxCell>
        <mxCell id="axN4tA1za8_WEL22JxkP-71" style="edgeStyle=orthogonalEdgeStyle;rounded=0;orthogonalLoop=1;jettySize=auto;html=1;exitX=0;exitY=0.75;exitDx=0;exitDy=0;entryX=0.448;entryY=0.612;entryDx=0;entryDy=0;entryPerimeter=0;endArrow=none;startFill=0;startArrow=block;" edge="1" parent="1" source="axN4tA1za8_WEL22JxkP-56" target="axN4tA1za8_WEL22JxkP-2">
          <mxGeometry relative="1" as="geometry">
            <Array as="points">
              <mxPoint x="730" y="327" />
              <mxPoint x="730" y="460" />
              <mxPoint x="113" y="460" />
            </Array>
          </mxGeometry>
        </mxCell>
        <mxCell id="axN4tA1za8_WEL22JxkP-73" style="edgeStyle=orthogonalEdgeStyle;rounded=0;orthogonalLoop=1;jettySize=auto;html=1;exitX=0;exitY=0.75;exitDx=0;exitDy=0;entryX=1;entryY=1;entryDx=0;entryDy=0;entryPerimeter=0;endArrow=none;startFill=0;startArrow=block;" edge="1" parent="1" source="axN4tA1za8_WEL22JxkP-57" target="axN4tA1za8_WEL22JxkP-1">
          <mxGeometry relative="1" as="geometry">
            <Array as="points">
              <mxPoint x="560" y="507" />
              <mxPoint x="560" y="620" />
              <mxPoint x="130" y="620" />
            </Array>
          </mxGeometry>
        </mxCell>
        <mxCell id="axN4tA1za8_WEL22JxkP-74" style="edgeStyle=orthogonalEdgeStyle;rounded=0;orthogonalLoop=1;jettySize=auto;html=1;exitX=0;exitY=0.75;exitDx=0;exitDy=0;entryX=0.367;entryY=0.677;entryDx=0;entryDy=0;entryPerimeter=0;endArrow=none;startFill=0;startArrow=block;" edge="1" parent="1" source="axN4tA1za8_WEL22JxkP-36" target="axN4tA1za8_WEL22JxkP-1">
          <mxGeometry relative="1" as="geometry" />
        </mxCell>
        <mxCell id="axN4tA1za8_WEL22JxkP-75" style="edgeStyle=orthogonalEdgeStyle;rounded=0;orthogonalLoop=1;jettySize=auto;html=1;entryX=0.5;entryY=0.717;entryDx=0;entryDy=0;entryPerimeter=0;endArrow=none;startFill=0;startArrow=block;" edge="1" parent="1" source="axN4tA1za8_WEL22JxkP-31" target="axN4tA1za8_WEL22JxkP-1">
          <mxGeometry relative="1" as="geometry">
            <Array as="points">
              <mxPoint x="410" y="315" />
              <mxPoint x="410" y="550" />
              <mxPoint x="115" y="550" />
            </Array>
          </mxGeometry>
        </mxCell>
        <mxCell id="axN4tA1za8_WEL22JxkP-76" style="edgeStyle=orthogonalEdgeStyle;rounded=0;orthogonalLoop=1;jettySize=auto;html=1;exitX=0;exitY=0.25;exitDx=0;exitDy=0;entryX=0.5;entryY=0.5;entryDx=0;entryDy=0;entryPerimeter=0;endArrow=none;startFill=0;startArrow=block;" edge="1" parent="1" source="axN4tA1za8_WEL22JxkP-34" target="axN4tA1za8_WEL22JxkP-5">
          <mxGeometry relative="1" as="geometry">
            <Array as="points">
              <mxPoint x="230" y="573" />
              <mxPoint x="230" y="230" />
            </Array>
          </mxGeometry>
        </mxCell>
        <mxCell id="axN4tA1za8_WEL22JxkP-77" style="edgeStyle=orthogonalEdgeStyle;rounded=0;orthogonalLoop=1;jettySize=auto;html=1;exitX=0;exitY=0.25;exitDx=0;exitDy=0;entryX=0.667;entryY=0.667;entryDx=0;entryDy=0;entryPerimeter=0;endArrow=none;startFill=0;startArrow=block;" edge="1" parent="1" source="axN4tA1za8_WEL22JxkP-30" target="axN4tA1za8_WEL22JxkP-5">
          <mxGeometry relative="1" as="geometry">
            <Array as="points">
              <mxPoint x="240" y="393" />
              <mxPoint x="240" y="240" />
            </Array>
          </mxGeometry>
        </mxCell>
        <mxCell id="axN4tA1za8_WEL22JxkP-78" style="edgeStyle=orthogonalEdgeStyle;rounded=0;orthogonalLoop=1;jettySize=auto;html=1;entryX=0.575;entryY=0.787;entryDx=0;entryDy=0;entryPerimeter=0;endArrow=none;startFill=0;startArrow=block;" edge="1" parent="1" source="axN4tA1za8_WEL22JxkP-35" target="axN4tA1za8_WEL22JxkP-5">
          <mxGeometry relative="1" as="geometry">
            <Array as="points">
              <mxPoint x="410" y="495" />
              <mxPoint x="410" y="247" />
            </Array>
          </mxGeometry>
        </mxCell>
        <mxCell id="axN4tA1za8_WEL22JxkP-79" style="edgeStyle=orthogonalEdgeStyle;rounded=0;orthogonalLoop=1;jettySize=auto;html=1;entryX=0.479;entryY=0.358;entryDx=0;entryDy=0;entryPerimeter=0;endArrow=none;startFill=0;startArrow=block;" edge="1" parent="1" source="axN4tA1za8_WEL22JxkP-29" target="axN4tA1za8_WEL22JxkP-5">
          <mxGeometry relative="1" as="geometry">
            <Array as="points">
              <mxPoint x="485" y="170" />
              <mxPoint x="260" y="170" />
              <mxPoint x="260" y="221" />
            </Array>
          </mxGeometry>
        </mxCell>
        <mxCell id="axN4tA1za8_WEL22JxkP-80" style="edgeStyle=orthogonalEdgeStyle;rounded=0;orthogonalLoop=1;jettySize=auto;html=1;exitX=0;exitY=0.25;exitDx=0;exitDy=0;entryX=0.321;entryY=0.802;entryDx=0;entryDy=0;entryPerimeter=0;endArrow=none;startFill=0;startArrow=block;" edge="1" parent="1" source="axN4tA1za8_WEL22JxkP-28" target="axN4tA1za8_WEL22JxkP-5">
          <mxGeometry relative="1" as="geometry">
            <Array as="points">
              <mxPoint x="260" y="303" />
              <mxPoint x="260" y="260" />
              <mxPoint x="110" y="260" />
            </Array>
          </mxGeometry>
        </mxCell>
        <mxCell id="axN4tA1za8_WEL22JxkP-81" style="edgeStyle=orthogonalEdgeStyle;rounded=0;orthogonalLoop=1;jettySize=auto;html=1;entryX=0.702;entryY=0.215;entryDx=0;entryDy=0;entryPerimeter=0;endArrow=none;startFill=0;startArrow=block;" edge="1" parent="1" source="axN4tA1za8_WEL22JxkP-32" target="axN4tA1za8_WEL22JxkP-4">
          <mxGeometry relative="1" as="geometry">
            <Array as="points">
              <mxPoint x="260" y="495" />
              <mxPoint x="260" y="293" />
            </Array>
          </mxGeometry>
        </mxCell>
        <mxCell id="axN4tA1za8_WEL22JxkP-82" style="edgeStyle=orthogonalEdgeStyle;rounded=0;orthogonalLoop=1;jettySize=auto;html=1;exitX=0;exitY=0.5;exitDx=0;exitDy=0;entryX=0.606;entryY=0.263;entryDx=0;entryDy=0;entryPerimeter=0;endArrow=none;startFill=0;startArrow=block;" edge="1" parent="1" source="axN4tA1za8_WEL22JxkP-34" target="axN4tA1za8_WEL22JxkP-4">
          <mxGeometry relative="1" as="geometry">
            <Array as="points">
              <mxPoint x="210" y="585" />
              <mxPoint x="210" y="296" />
            </Array>
          </mxGeometry>
        </mxCell>
        <mxCell id="axN4tA1za8_WEL22JxkP-84" style="edgeStyle=orthogonalEdgeStyle;rounded=0;orthogonalLoop=1;jettySize=auto;html=1;exitX=0;exitY=0.75;exitDx=0;exitDy=0;entryX=0.5;entryY=0.5;entryDx=0;entryDy=0;entryPerimeter=0;endArrow=none;startFill=0;startArrow=block;" edge="1" parent="1">
          <mxGeometry relative="1" as="geometry">
            <mxPoint x="615" y="220.02" as="sourcePoint" />
            <mxPoint x="140" y="302.52" as="targetPoint" />
            <Array as="points">
              <mxPoint x="570" y="220" />
              <mxPoint x="570" y="260" />
              <mxPoint x="140" y="260" />
            </Array>
          </mxGeometry>
        </mxCell>
        <mxCell id="axN4tA1za8_WEL22JxkP-85" style="edgeStyle=orthogonalEdgeStyle;rounded=0;orthogonalLoop=1;jettySize=auto;html=1;exitX=0;exitY=0.75;exitDx=0;exitDy=0;entryX=0.543;entryY=0.39;entryDx=0;entryDy=0;entryPerimeter=0;endArrow=none;startFill=0;startArrow=block;" edge="1" parent="1" source="axN4tA1za8_WEL22JxkP-54" target="axN4tA1za8_WEL22JxkP-4">
          <mxGeometry relative="1" as="geometry">
            <Array as="points">
              <mxPoint x="720" y="228" />
              <mxPoint x="720" y="360" />
              <mxPoint x="116" y="360" />
            </Array>
          </mxGeometry>
        </mxCell>
        <mxCell id="axN4tA1za8_WEL22JxkP-86" style="edgeStyle=orthogonalEdgeStyle;rounded=0;orthogonalLoop=1;jettySize=auto;html=1;exitX=0;exitY=0.75;exitDx=0;exitDy=0;entryX=0.667;entryY=0.797;entryDx=0;entryDy=0;entryPerimeter=0;endArrow=none;startFill=0;startArrow=block;" edge="1" parent="1" source="axN4tA1za8_WEL22JxkP-53" target="axN4tA1za8_WEL22JxkP-4">
          <mxGeometry relative="1" as="geometry">
            <Array as="points">
              <mxPoint x="355" y="350" />
              <mxPoint x="355" y="350" />
            </Array>
          </mxGeometry>
        </mxCell>
        <mxCell id="axN4tA1za8_WEL22JxkP-87" style="edgeStyle=orthogonalEdgeStyle;rounded=0;orthogonalLoop=1;jettySize=auto;html=1;exitX=0.25;exitY=1;exitDx=0;exitDy=0;entryX=0.473;entryY=0.65;entryDx=0;entryDy=0;entryPerimeter=0;endArrow=none;startFill=0;startArrow=blockThin;" edge="1" parent="1" source="axN4tA1za8_WEL22JxkP-29" target="axN4tA1za8_WEL22JxkP-4">
          <mxGeometry relative="1" as="geometry">
            <Array as="points">
              <mxPoint x="400" y="240" />
              <mxPoint x="400" y="370" />
              <mxPoint x="114" y="370" />
            </Array>
          </mxGeometry>
        </mxCell>
        <mxCell id="axN4tA1za8_WEL22JxkP-88" style="edgeStyle=orthogonalEdgeStyle;rounded=0;orthogonalLoop=1;jettySize=auto;html=1;exitX=0;exitY=0.25;exitDx=0;exitDy=0;entryX=0.606;entryY=0.279;entryDx=0;entryDy=0;entryPerimeter=0;endArrow=none;startFill=0;startArrow=block;" edge="1" parent="1" source="axN4tA1za8_WEL22JxkP-37" target="axN4tA1za8_WEL22JxkP-4">
          <mxGeometry relative="1" as="geometry">
            <Array as="points">
              <mxPoint x="410" y="573" />
              <mxPoint x="410" y="280" />
              <mxPoint x="118" y="280" />
            </Array>
          </mxGeometry>
        </mxCell>
        <mxCell id="axN4tA1za8_WEL22JxkP-89" style="edgeStyle=orthogonalEdgeStyle;rounded=0;orthogonalLoop=1;jettySize=auto;html=1;exitX=0;exitY=0.25;exitDx=0;exitDy=0;entryX=0.448;entryY=0.271;entryDx=0;entryDy=0;entryPerimeter=0;endArrow=none;startFill=0;startArrow=block;" edge="1" parent="1" source="axN4tA1za8_WEL22JxkP-56" target="axN4tA1za8_WEL22JxkP-3">
          <mxGeometry relative="1" as="geometry">
            <Array as="points">
              <mxPoint x="740" y="303" />
              <mxPoint x="740" y="450" />
              <mxPoint x="113" y="450" />
            </Array>
          </mxGeometry>
        </mxCell>
        <mxCell id="axN4tA1za8_WEL22JxkP-91" style="edgeStyle=orthogonalEdgeStyle;rounded=0;orthogonalLoop=1;jettySize=auto;html=1;exitX=0;exitY=0.25;exitDx=0;exitDy=0;entryX=1;entryY=0.3333333333333333;entryDx=0;entryDy=0;entryPerimeter=0;endArrow=none;startFill=0;startArrow=blockThin;" edge="1" parent="1" source="axN4tA1za8_WEL22JxkP-36" target="axN4tA1za8_WEL22JxkP-3">
          <mxGeometry relative="1" as="geometry" />
        </mxCell>
        <mxCell id="axN4tA1za8_WEL22JxkP-92" style="edgeStyle=orthogonalEdgeStyle;rounded=0;orthogonalLoop=1;jettySize=auto;html=1;exitX=0.25;exitY=1;exitDx=0;exitDy=0;entryX=0.638;entryY=0.715;entryDx=0;entryDy=0;entryPerimeter=0;endArrow=none;startFill=0;startArrow=block;" edge="1" parent="1" source="axN4tA1za8_WEL22JxkP-61" target="axN4tA1za8_WEL22JxkP-3">
          <mxGeometry relative="1" as="geometry">
            <Array as="points">
              <mxPoint x="618" y="730" />
              <mxPoint x="190" y="730" />
              <mxPoint x="190" y="413" />
            </Array>
          </mxGeometry>
        </mxCell>
        <mxCell id="axN4tA1za8_WEL22JxkP-93" style="edgeStyle=orthogonalEdgeStyle;rounded=0;orthogonalLoop=1;jettySize=auto;html=1;exitX=0;exitY=0.25;exitDx=0;exitDy=0;entryX=0.5;entryY=0.5;entryDx=0;entryDy=0;entryPerimeter=0;endArrow=none;startFill=0;startArrow=block;" edge="1" parent="1" source="axN4tA1za8_WEL22JxkP-60" target="axN4tA1za8_WEL22JxkP-3">
          <mxGeometry relative="1" as="geometry">
            <Array as="points">
              <mxPoint x="750" y="440" />
              <mxPoint x="115" y="440" />
            </Array>
          </mxGeometry>
        </mxCell>
        <mxCell id="axN4tA1za8_WEL22JxkP-94" style="edgeStyle=orthogonalEdgeStyle;rounded=0;orthogonalLoop=1;jettySize=auto;html=1;exitX=0;exitY=0.25;exitDx=0;exitDy=0;entryX=0.5;entryY=0.5;entryDx=0;entryDy=0;entryPerimeter=0;endArrow=none;startFill=0;startArrow=block;" edge="1" parent="1" source="axN4tA1za8_WEL22JxkP-62" target="axN4tA1za8_WEL22JxkP-3">
          <mxGeometry relative="1" as="geometry">
            <Array as="points">
              <mxPoint x="750" y="550" />
              <mxPoint x="240" y="550" />
              <mxPoint x="240" y="400" />
            </Array>
          </mxGeometry>
        </mxCell>
        <mxCell id="axN4tA1za8_WEL22JxkP-95" style="edgeStyle=orthogonalEdgeStyle;rounded=0;orthogonalLoop=1;jettySize=auto;html=1;exitX=0;exitY=0.25;exitDx=0;exitDy=0;entryX=0.67;entryY=0.858;entryDx=0;entryDy=0;entryPerimeter=0;endArrow=none;startFill=0;startArrow=block;" edge="1" parent="1" source="axN4tA1za8_WEL22JxkP-31" target="axN4tA1za8_WEL22JxkP-3">
          <mxGeometry relative="1" as="geometry">
            <Array as="points">
              <mxPoint x="430" y="370" />
              <mxPoint x="120" y="370" />
            </Array>
          </mxGeometry>
        </mxCell>
        <mxCell id="axN4tA1za8_WEL22JxkP-96" style="edgeStyle=orthogonalEdgeStyle;rounded=0;orthogonalLoop=1;jettySize=auto;html=1;exitX=0;exitY=0.25;exitDx=0;exitDy=0;entryX=0.384;entryY=0.382;entryDx=0;entryDy=0;entryPerimeter=0;endArrow=none;startFill=0;startArrow=block;" edge="1" parent="1" source="axN4tA1za8_WEL22JxkP-55" target="axN4tA1za8_WEL22JxkP-3">
          <mxGeometry relative="1" as="geometry">
            <Array as="points">
              <mxPoint x="590" y="370" />
              <mxPoint x="112" y="370" />
            </Array>
          </mxGeometry>
        </mxCell>
        <mxCell id="axN4tA1za8_WEL22JxkP-97" style="edgeStyle=orthogonalEdgeStyle;rounded=0;orthogonalLoop=1;jettySize=auto;html=1;exitX=0;exitY=0.25;exitDx=0;exitDy=0;entryX=0.67;entryY=0.366;entryDx=0;entryDy=0;entryPerimeter=0;endArrow=none;startFill=0;startArrow=block;" edge="1" parent="1" source="axN4tA1za8_WEL22JxkP-57" target="axN4tA1za8_WEL22JxkP-3">
          <mxGeometry relative="1" as="geometry">
            <Array as="points">
              <mxPoint x="590" y="460" />
              <mxPoint x="120" y="460" />
            </Array>
          </mxGeometry>
        </mxCell>
        <mxCell id="axN4tA1za8_WEL22JxkP-98" style="edgeStyle=orthogonalEdgeStyle;rounded=0;orthogonalLoop=1;jettySize=auto;html=1;exitX=0;exitY=0.25;exitDx=0;exitDy=0;entryX=1;entryY=0.3333333333333333;entryDx=0;entryDy=0;entryPerimeter=0;endArrow=none;startFill=0;startArrow=block;" edge="1" parent="1" source="axN4tA1za8_WEL22JxkP-52" target="axN4tA1za8_WEL22JxkP-2">
          <mxGeometry relative="1" as="geometry">
            <Array as="points">
              <mxPoint x="430" y="640" />
              <mxPoint x="180" y="640" />
              <mxPoint x="180" y="480" />
            </Array>
          </mxGeometry>
        </mxCell>
        <mxCell id="axN4tA1za8_WEL22JxkP-99" style="edgeStyle=orthogonalEdgeStyle;rounded=0;orthogonalLoop=1;jettySize=auto;html=1;exitX=0.25;exitY=1;exitDx=0;exitDy=0;entryX=0.924;entryY=0.89;entryDx=0;entryDy=0;entryPerimeter=0;endArrow=none;startFill=0;startArrow=block;" edge="1" parent="1" source="axN4tA1za8_WEL22JxkP-52" target="axN4tA1za8_WEL22JxkP-3">
          <mxGeometry relative="1" as="geometry">
            <Array as="points">
              <mxPoint x="458" y="740" />
              <mxPoint x="170" y="740" />
              <mxPoint x="170" y="423" />
            </Array>
          </mxGeometry>
        </mxCell>
        <mxCell id="axN4tA1za8_WEL22JxkP-102" style="edgeStyle=orthogonalEdgeStyle;rounded=0;orthogonalLoop=1;jettySize=auto;html=1;exitX=1;exitY=0.25;exitDx=0;exitDy=0;entryX=0.009;entryY=0.368;entryDx=0;entryDy=0;entryPerimeter=0;dashed=1;" edge="1" parent="1" source="axN4tA1za8_WEL22JxkP-30" target="axN4tA1za8_WEL22JxkP-33">
          <mxGeometry relative="1" as="geometry" />
        </mxCell>
        <mxCell id="axN4tA1za8_WEL22JxkP-103" value="&amp;lt;&amp;lt;include&amp;gt;&amp;gt;" style="edgeLabel;html=1;align=center;verticalAlign=middle;resizable=0;points=[];fontSize=8;" vertex="1" connectable="0" parent="axN4tA1za8_WEL22JxkP-102">
          <mxGeometry x="-0.3334" y="1" relative="1" as="geometry">
            <mxPoint as="offset" />
          </mxGeometry>
        </mxCell>
        <mxCell id="axN4tA1za8_WEL22JxkP-106" value="&#xa;&amp;lt;&amp;lt;extend&amp;gt;&amp;gt;&#xa;&#xa;" style="text;align=center;fontStyle=1;verticalAlign=middle;spacingLeft=3;spacingRight=3;strokeColor=none;rotatable=0;points=[[0,0.5],[1,0.5]];portConstraint=eastwest;html=1;fontSize=7;" vertex="1" parent="1">
          <mxGeometry x="350" y="477" width="80" height="26" as="geometry" />
        </mxCell>
      </root>
    </mxGraphModel>
  </diagram>
</mxfile>
